/* XPM */
static char *result[] = {
/* columns rows colors chars-per-pixel */
"50 50 68 1 ",
"  c #7C6F5C",
". c #7B705D",
"X c #7E7460",
"o c #83755E",
"O c #88775E",
"+ c #85785F",
"@ c #8B7A5F",
"# c #847661",
"$ c #887761",
"% c #867962",
"& c #8B7C64",
"* c #8D7E69",
"= c #917E65",
"- c #907F69",
"; c #8E8166",
": c #8F8168",
"> c #938166",
", c #998566",
"< c #9D8867",
"1 c #94836A",
"2 c #99866B",
"3 c #97886D",
"4 c #9B8A6D",
"5 c #978770",
"6 c #988670",
"7 c #978971",
"8 c #9D8C71",
"9 c #9F9172",
"0 c #A08867",
"q c #A28D6E",
"w c #A5916F",
"e c #AC946F",
"r c #B1956F",
"t c #A28E72",
"y c #A49274",
"u c #AB9575",
"i c #AE9976",
"p c #A69479",
"a c #AA9679",
"s c #A79878",
"d c #AD9A7A",
"f c #B29674",
"g c #B39A76",
"h c #B99D77",
"j c #B19778",
"k c #B39D7B",
"l c #B89E7A",
"z c #AFA27E",
"x c #B5A177",
"c c #B5A17D",
"v c #BBA37D",
"b c #BCA87F",
"n c #C1A77E",
"m c #AF9C80",
"M c #B29E81",
"N c #B99F80",
"B c #B5A281",
"V c #BBA582",
"C c #B6A983",
"Z c #BDAA84",
"A c #BCA788",
"S c #BDAB89",
"D c #BEB089",
"F c #C0A682",
"G c #C1AA85",
"H c #C2AD89",
"J c #C2B18B",
"K c #C2B190",
/* pixels */
"a3#%>44;%>wvbbvvut>&4y8,;@,ixvVVVxki>#*tsy41;&&%&&",
"3% o%*&O@4gvbnvy68pp93;@@@,exhhcVnFvu$*uvBzy1;:344",
"##$&$;:18www4y4698t1>>;>;,,ehhufvvvnf>*4uczs9;7ydB",
"&3yt89yyy4193*>y:%&*;;>;>;qehhffhhvbvq@&3w4w3&>9BS",
"yMBzddd33sccky7>*6uMdji4;<kifuuglvnFbu,$@>;$%.#1sB",
"BSSBcc81sxccNM4&ulcABvgw@><w4&<ukknFvxu3;;$%&+ #73",
"ADSCcy:1uckkka@qbnFlfhh,@;>4pday3dfslvvcsy8yy4# #*",
"SDCds1$3wfuid>=ivlhhfhfq<,31169pp1;1>ycZckdcCA8oo*",
"SM7:;&>q,==,>O<vFbvkigkg<>,w33&&ttpBM93cVccASDz;O>",
"s:;11,41*>&;18kvbvlj484>@>gvCHcy&tVlcc43cBBCSDC3o&",
"1&8uyu;&ydsadVvgfks9y44>=@0vrlbnq3lvkkw;3kBZJJC9;o",
";1ydk4+8SCcccZd4u358:1>>@,ihfhhvk$4yqsw>$33kZJDc4&",
"91yki>+sDSBBZd9ZZk11gSvx>>4u<unGbqO*O&qy>*&&dSJJz3",
"39ki3$3zHSVvs;ykid>xvhge>,yddp,3wbkyyd&3dau,:BHJSc",
"8ckt$*dDJSd3;><,4>4nvgfgq<33tm8dy8ccBKdoykd4>cSJDZ",
"cZd&#dJJHy:843>3>tlvkigu>,kM83Nlcy9cZJB&1jl8ybbDHS",
"cs;;wZJDV34dd%BCBZc13yad<4fhbwtlgu%>ySDso4cc44vxVG",
"s3;8ZHZZZ88j3:SZcB9dpNMkkikhvh,*>uyy3sJJ4%uHB34ZZG",
"y8:zZZbvuyBtozJZd>3xGk7y>dAkcxZdB:fk4ySJZ31dc9$zZb",
"y8:xbbSx>ck;yJZs:8fft<vvwqayydVVD94cdqccZV;9p11Bvv",
"773Bvvvi:y19HvvuyGc8ycxVVxVVd>yvSS>uZd1ZbZ39y;8CZb",
"913cvVHB:41dbVsyZv4sSkcBV=tvvi4snZc3l9>BxZ889;&dGn",
"y33ixbVy+41BvVp3Zd4Hvvd3ivsybHu9vbb7B:6HFg43d3#4kv",
"y13wfkk39s;ylG83GtcvZuuVvZVvqGZ1kFk3dd&uke44BB43uk",
"py&<uvj3Bm*<kZ1MH7iFF8GFZVFF,FHyuGh=dZttkq>9BAp1uh",
"Bp3&<fi:dVy&qh>NVk=fl1FVlVFt4CZuuh>>AVt3e*3dVBt-yf",
"kd8%>wt$tli#O3@uvV1-atlVVFFtjFV<2-$4kk>=,OydNd4=qu",
"Bly;O&&%1jk1$3oqFVtqHF-uFld1NGG1428ubt& &&qkld1#>>",
"vjt#O&%$=fvttj#qvFttlkla31tlVVVpf2tavu=-*4uvkt&#oO",
"kvit>$4%=ul4y=26HGi4iklklNVlju&dFy-FVtotyqjbj<=#oO",
"jVkt88k>$iVF4qjtNHVt1taNlHlu2ttult4VFt$yatdvh4$&1O",
"jvk#yaN&$uVj-ql2&wNju-tjM22=ukuiFttVH8==tlFvf<o18-",
"hlkutyq$&pHj3tiu:y83FltjjjljlFBt3-GHa1kq-lGVi2#1jt",
"ikVGit=0-pHV8tvN4%1=2jFFNNNmNt3*-aku=3u24tFVu-o-ua",
"uvFFt1qvy1tNM>uiyBGv-qt6iNNNy4-p=tkq$<3t6tGHj-$=yj",
"ucZj6-<jj-&jd6&6:dVFjt0t--66-2ju-$-*3ukq6NGHa--=4u",
"dSHj3*4wj>O><i&#11&qVNAGjkkNvk<=>y31svv1aHFV83aj=4",
"dHHa46yqd>&*ia$#4-*yiVANNli6uj$aVGB8ya&3VVf3*8jj=1",
"pCHZat<kvd8*#$*&,qt1$6tpp-25-58NlN9&*%*aNyt&=tjq--",
"7dAGMp-jVcj33ya4&O=2utt23>iAVNNi$#78*%4ju4>$=qu32-",
"*3ulAd>>uipydSSVa&-kkipkVklVVVkk6$*=&$3dly>**qt4t3",
"$$2uik3$3p66sBVZGt=2-#*ttBAAMy-&t2tt1&$181*18yiu48",
"&#>qtuy3#&**4suulMa6tmm6&1---6-&1tw<&=:&#%>uaVbw>8",
"*$&,qujt$#*58>+>ulVNAHNmtttuujkiu<*$>tdu438dkxg4=2",
">&*3pBk8$o%*;:&1kkVVVBNklZNkMkklu=OtdVHGmappiu>$=4",
"4>1:4t4&$#*416&8t4aVZZAVNdit1-6t4$4NZFVVd769a8$O&<",
"8t1*%#%$**$,<y6:=$*58maaa1-1*-**-1yNcddd9;***%&>3,",
"2tt1*;17y3*=>1<*-122-**-*&6tMMatajkkw13991*% o3aa7",
"=ta8618dkp8>&$>qyilaytttt7uBAZVVNVkd3%%;33;#.X3y81",
"*165*%1pzdy8>o>ukfjddjlVVkjlcNVvBNBk8&***%#..#&;**"
};
