/* XPM */
static char *_cc1c2e7f67f4545b417ac2e1c1464ebFkgDQkgn6L1ecFAl_0[] = {
/* columns rows colors chars-per-pixel */
"50 50 256 2 ",
"   c None",
".  c #D48B00",
"X  c #DB8B00",
"o  c #D09219",
"O  c #E58B00",
"+  c #E29400",
"@  c #ED9600",
"#  c #E49B00",
"$  c #EE9800",
"%  c #DBAB00",
"&  c #DAAE00",
"*  c #DBB000",
"=  c #E4A300",
"-  c #EEA400",
";  c #EEAA00",
":  c #ECAC0C",
">  c #F4A300",
",  c #F4AB00",
"<  c #EEB300",
"1  c #EEBA00",
"2  c #E8B50D",
"3  c #F5B400",
"4  c #F5BA00",
"5  c #F8BE00",
"6  c #F0AE10",
"7  c #D29837",
"8  c #D9A82B",
"9  c #E2BA39",
"0  c #F1C200",
"q  c #F4C300",
"w  c #F3C400",
"e  c #F6C600",
"r  c #F9C500",
"t  c #F9C800",
"y  c #FDCC00",
"u  c #F4CB0D",
"i  c #F2D400",
"p  c #FDD400",
"a  c #F1DA00",
"s  c #FDDB00",
"d  c #FDDC00",
"f  c #F7D30D",
"g  c #F2C712",
"h  c #F3E200",
"j  c #FBE100",
"k  c #FEE200",
"l  c #FDE600",
"z  c #F6E900",
"x  c #FEE800",
"c  c #FDEC00",
"v  c #FEF000",
"b  c #FEF400",
"n  c #FEF901",
"m  c #F9F319",
"M  c #E6C628",
"N  c #EDD733",
"B  c #FDFD29",
"V  c #E1BB49",
"C  c #F3E549",
"Z  c #F9F455",
"A  c #FCFC54",
"S  c #FCFC59",
"D  c #EDD767",
"F  c #D39400",
"G  c #E98C00",
"H  c #E49C00",
"J  c #F19C00",
"K  c #DBA400",
"L  c #D9AE00",
"P  c #DDB100",
"I  c #EEA500",
"U  c #E5AA00",
"Y  c #EEA800",
"T  c #EAA70F",
"R  c #F0A200",
"E  c #F6A900",
"W  c #E3B400",
"Q  c #EBB700",
"!  c #E5B900",
"~  c #ECBB00",
"^  c #E0B70A",
"/  c #F6B400",
"(  c #F6B800",
")  c #F8BF00",
"_  c #E8B619",
"`  c #D8A62B",
"'  c #DFB223",
"]  c #D8A737",
"[  c #DDB33A",
"{  c #E2BC38",
"}  c #EEC500",
"|  c #EECB00",
" . c #F2C500",
".. c #F9C400",
"X. c #F6C800",
"o. c #FCCA00",
"O. c #F3D500",
"+. c #FCD100",
"@. c #FBD400",
"#. c #FDD700",
"$. c #FDDA00",
"%. c #F7DE13",
"&. c #F6E100",
"*. c #FEE000",
"=. c #FEE400",
"-. c #F8E803",
";. c #FFE800",
":. c #FFEC00",
">. c #FFF100",
",. c #FFF400",
"<. c #FFF800",
"1. c #FDFD2A",
"2. c #E1BD49",
"3. c #E6C847",
"4. c #F3E64B",
"5. c #F4EA57",
"6. c #FCFC57",
"7. c #EAD163",
"8. c #EFA400",
"9. c #E6AA00",
"0. c #EEA900",
"q. c #EFAE0A",
"w. c #F0A509",
"e. c #F0AC0A",
"r. c #E3B500",
"t. c #ECB300",
"y. c #E7B800",
"u. c #EAB900",
"i. c #EFB00C",
"p. c #F8B500",
"a. c #F5B900",
"s. c #F8BD00",
"d. c #F0B10A",
"f. c #D9A836",
"g. c #DEB43A",
"h. c #EFC500",
"j. c #F2C400",
"k. c #FAC400",
"l. c #FFCC00",
"z. c #FED100",
"x. c #FCD500",
"c. c #F3DB00",
"v. c #FED800",
"b. c #FFDC00",
"n. c #F7E100",
"m. c #FCE100",
"M. c #FFE400",
"N. c #FCEF00",
"B. c #FFF900",
"V. c #E7C63C",
"C. c #E6C845",
"Z. c #F9F45A",
"A. c #D6AC00",
"S. c #DEB302",
"D. c #E5B700",
"F. c #E7B900",
"G. c #EBBC00",
"H. c #ECBD00",
"J. c #FECB00",
"K. c #EC9400",
"L. c #E6AB00",
"P. c #EEAD0A",
"I. c #F1A200",
"U. c #F5A900",
"Y. c #F0AE08",
"T. c #EBB400",
"R. c #E9B900",
"E. c #EFB10A",
"W. c #F4B304",
"Q. c #F5B800",
"!. c #DAA828",
"~. c #F6C900",
"^. c #FFCD00",
"/. c #F3D400",
"(. c #FFD100",
"). c #FFD400",
"_. c #FED900",
"`. c #FDDE00",
"'. c #F6E200",
"]. c #FFE300",
"[. c #F6E800",
"{. c #FDE900",
"}. c #FDED00",
"|. c #FEFA01",
" X c #FBF01B",
".X c #E7C846",
"XX c #FAF454",
"oX c #D58A00",
"OX c #F09B00",
"+X c #DFB800",
"@X c #E5A300",
"#X c #E4AB00",
"$X c #F3A400",
"%X c #E6B900",
"&X c #F8B600",
"*X c #EAA813",
"=X c #D8A52B",
"-X c #D8A637",
";X c #DDB239",
":X c #EBB926",
">X c #E1BC3A",
",X c #EECA00",
"<X c #FBCC00",
"1X c #FCD400",
"2X c #F6DD1B",
"3X c #FEE300",
"4X c #FDE500",
"5X c #F7E900",
"6X c #FDEA00",
"7X c #FEF200",
"8X c #FDF500",
"9X c #FEF801",
"0X c #E1BC52",
"qX c #E6C946",
"wX c #ECD557",
"eX c #F6EC51",
"rX c black",
"tX c black",
"yX c black",
"uX c black",
"iX c black",
"pX c black",
"aX c black",
"sX c black",
"dX c black",
"fX c black",
"gX c black",
"hX c black",
"jX c black",
"kX c black",
"lX c black",
"zX c black",
"xX c black",
"cX c black",
"vX c black",
"bX c black",
"nX c black",
"mX c black",
"MX c black",
"NX c black",
"BX c black",
"VX c black",
"CX c black",
"ZX c black",
"AX c black",
"SX c black",
"DX c black",
"FX c black",
"GX c black",
"HX c black",
"JX c black",
"KX c black",
"LX c black",
"PX c black",
"IX c black",
"UX c black",
/* pixels */
"                                                                                                    ",
"                                                                                                    ",
"                                                                                                    ",
"                                                                                                    ",
"                                                                                                    ",
"                                                                                                    ",
"                                                                                                    ",
"                                                                                                    ",
"                                                                                                    ",
"                                                                                                    ",
"                                                                                                    ",
"                                                                                                    ",
"                                                                                                    ",
"                                          s d k j l x v v v                                         ",
"                                      y y y q 4 3 3 3 w f j l n                                     ",
"                                    y r , , , , , , 3 3 w 4 u z n                                   ",
"                                  d e , , , 3 , , , 3 , 3 3 w 4 a n                                 ",
"                                x e , , , , 3 , 3 a e , , 3 3 w 4 a n                               ",
"                              v f 3 3 , , , 3 , 3 n b 4 3 3 3 w 4 4 h n                             ",
"                            n c 4 3 3 , , , 3 , n c n b 3 3 , 3 3 w 4 c n                           ",
"                            v i 0 4 3 3 , , , m n b n b n , , , 3 , 3 a b                           ",
"                          d j 4 u 0 4 4 3 t l x v v v v v x e 4 3 3 , 4 h v                         ",
"                          i t 4 3 t u p k j l l l l l l k j l k j t 4 3 f j                         ",
"                          y 4 3 : % p p p p p p p p p p p p p p p p = ; 0 v                         ",
"                          f , , , . 1 y y q y y q y y y q y y y y = ; - < c                         ",
"                          y 4 , , , . r y y q y y y y y q y y y y @ $ - < x                         ",
"                          e 4 > , , , o y y q y y y y y y q y y # $ - $ - l                         ",
"                          y 4 , > , > X 2 y y q y y y y y p p 4 $ - $ $ - l                         ",
"                          y 4 , > $ - $ & l l l k l l l k l x e $ - $ $ 3 f                         ",
"                          y 4 , > $ $ - * n c n n c n n n c n f $ - $ $ 3 s                         ",
"                            y - $ - $ $ * B B B B B B B B B B f $ $ - $ y                           ",
"                            s 5 $ - $ $ 8 A A A C M 9 N Z S S f $ $ $ 5 y                           ",
"                              s 6 $ - $ 7 D 9 + $ - ; - $ 8 V 9 - $ 3 f                             ",
"                                y , $ - O $ - $ $ - $ 3 ; - ; - ; 1 y                               ",
"                                y y 6 $ $ - $ $ - $ - ; ; - ; 1 g l x                               ",
"                                    y 4 , > $ $ $ - $ $ 3 ; 0 j l                                   ",
"                                      y y q , , $ - $ $ 3 s v v                                     ",
"                                          y y q y y y y y l                                         ",
"                                                                                                    ",
"                                                                                                    ",
"                                                                                                    ",
"                                                                                                    ",
"                                                                                                    ",
"                                                                                                    ",
"                                                                                                    ",
"                                                                                                    ",
"                                                                                                    ",
"                                                                                                    ",
"                                                                                                    ",
"                                                                                                    "
};
