/* XPM */
static char *result[] = {
/* columns rows colors chars-per-pixel */
"50 50 112 2 ",
"   c #161932",
".  c #1D1D33",
"X  c #201F34",
"o  c #232034",
"O  c #2C2336",
"+  c #2D2438",
"@  c #2F2838",
"#  c #322437",
"$  c #362937",
"%  c #3A2937",
"&  c #332438",
"*  c #3D263A",
"=  c #352C39",
"-  c #3C2D3A",
";  c #3D313B",
":  c #432E37",
">  c #42273C",
",  c #45293C",
"<  c #4C2C3C",
"1  c #512F3C",
"2  c #463037",
"3  c #4A3037",
"4  c #45353E",
"5  c #4B343B",
"6  c #4D3A3E",
"7  c #55323C",
"8  c #5B343C",
"9  c #543D3E",
"0  c #5C3A3B",
"q  c #60373D",
"w  c #643C3D",
"e  c #6B3E3C",
"r  c #57403F",
"t  c #58413F",
"y  c #64413E",
"u  c #6C413C",
"i  c #74423D",
"p  c #7B463D",
"a  c #7F483D",
"s  c #4D3B41",
"d  c #533D41",
"f  c #583D40",
"g  c #623D44",
"h  c #574041",
"j  c #5A4241",
"k  c #624643",
"l  c #694346",
"z  c #664944",
"x  c #6C4D44",
"c  c #654A48",
"v  c #6C4D4A",
"b  c #704746",
"n  c #724B45",
"m  c #7D4D46",
"M  c #724F4A",
"N  c #6F504A",
"B  c #735145",
"V  c #7B5346",
"C  c #7D5847",
"Z  c #72524B",
"A  c #7B544C",
"S  c #7C594F",
"D  c #7F5B50",
"F  c #81493D",
"G  c #865344",
"H  c #8D5646",
"J  c #805847",
"K  c #8C5A46",
"L  c #83564B",
"P  c #895749",
"I  c #855C4A",
"U  c #8C5C4B",
"Y  c #905745",
"T  c #925A46",
"R  c #9A5D47",
"E  c #935C4A",
"W  c #995F48",
"Q  c #845D51",
"!  c #8D614D",
"~  c #9C6147",
"^  c #94634D",
"/  c #9A624B",
"(  c #9C694E",
")  c #8B6254",
"_  c #936554",
"`  c #9B6551",
"'  c #976856",
"]  c #9A6A56",
"[  c #9D6C58",
"{  c #A2674B",
"}  c #A56B4D",
"|  c #AA6D4D",
" . c #AD704F",
".. c #A56E53",
"X. c #A77050",
"o. c #AD7352",
"O. c #A6715A",
"+. c #AD765C",
"@. c #AF785D",
"#. c #B27551",
"$. c #B67A53",
"%. c #BD7E55",
"&. c #B0775D",
"*. c #B27A5E",
"=. c #B87D5F",
"-. c #B67D60",
";. c #C07F55",
":. c #BF8056",
">. c #C18156",
",. c #C78458",
"<. c #C98558",
"1. c None",
/* pixels */
"1.1.1.1.1.1.1.1.1.1.1.1.1.1.1.1.1.1.1.1.1.1.1.o . o o 1.1.1.1.1.1.1.1.1.1.1.1.1.1.1.1.1.1.1.1.1.1.1.",
"1.1.1.1.1.1.1.1.1.1.1.1.1.1.1.1.1.1.1.1.1.o s ( ( ^ ( s o 1.1.1.1.1.1.1.1.1.1.1.1.1.1.1.1.1.1.1.1.1.",
"1.1.1.1.1.1.1.1.1.1.1.1.1.1.1.1.1.1.1.= s D k >.:.:.,.j S s = 1.1.1.1.1.1.1.1.1.1.1.1.1.1.1.1.1.1.1.",
"1.1.1.1.1.1.1.1.1.1.1.1.1.1.1.1.1.1.j Q -.] h ;.:.%.:.h ' -.D @ 1.1.1.1.1.1.1.1.1.1.1.1.1.1.1.1.1.1.",
"1.1.1.1.1.1.1.1.1.1.1.1.1.1.1.o j ) +.&.&.' h >.%.%.>.j ' @.+.s ! k o 1.1.1.1.1.1.1.1.1.1.1.1.1.1.1.",
"1.1.1.1.1.1.1.1.1.1.1.1.1.= s _ +.-.+.+.&.' h >.%.%.;.h ' @.+.G ;.$...6 = 1.1.1.1.1.1.1.1.1.1.1.1.1.",
"1.1.1.1.1.1.1.1.1.1.1.1.h Q -.O._ O.+.+.&.[ f ;.%.%.;.h ] &.+.K $.:.:.>.^ t 1.1.1.1.1.1.1.1.1.1.1.1.",
"1.1.1.1.1.1.1.1.1.o j Q &.*.^ T ` O.+.+.O.j d >.%.%.>.d j +.O.z $.:.%.:.>.>.! k . 1.1.1.1.1.1.1.1.1.",
"1.1.1.1.1.1.1.= s _ O.-.+.+.O.O.*.&.[ A s Z h >.%.%.%.h I m L s $.;.;.;.%.%.>.%.] 9 = 1.1.1.1.1.1.1.",
"1.1.1.1.1.1.5 I +.@.+.+.+.@.+.*._ A 4 Z +.] t :.%.%.>.r U +.Q l U o.>.;.%.%.%.%.>.:.^ 9 1.1.1.1.1.1.",
"1.1.1.. z ^ } ` +.+.+.+.@.@.O.x L V g +.+.' t >.%.%.>.t L E O.O.A v x $.%.;.%.%.:.:.>.>.! z . 1.1.1.",
"1.1.1.j ;.,.~ _ +.+.-.@.[ Z 9 ^ $.%.l O.@.' h :.%.%.>.h _ ..O.&.=.[ Q Y { $.;.>.%.%.:.%.>.:.j 1.1.1.",
"1.1.1.x $.| y Z -.-.' A h C #.:.;.$.l O.@.] t >.%.%.>.t ] -.+.+.+.*.@.O.` Y ( X.>.:.:.%.%.,.x 1.1.1.",
"1.1.1.x | } V Z O.c v B :.:.:.%.;.$.l +.*.c 9 >.%.%.>.9 l +.+.+.+.+.+.+.+.+.Q c B #.:.:.%.>.x 1.1.1.",
"1.1.1.x <.<.B - j U o.>.%.%.%.:.>.$.d I d x r >.%.%.>.t x d Q O.*.+.+.+.+.+.:.v t t B #.%.,.x 1.1.1.",
"1.1.1.B #.U 6 J #.>.:.:.:.%.%.:.$.} 6 M #.X.h :.%.%.>.t ..o.Z f ` O.=.+.+.+.*.x ! #.! 9 I o.B 1.1.1.",
"1.1.1.9 L P %.>.:.%.:.:.%.>.%.I ~ W $.%.>.E r :.%.%.>.t ..>.%.$.~ J Z +.+.+.-.M L >.%.%.V x 5 1.1.1.",
"1.1.1.9 #.>. .T #.%.%.>.%.I h I #.>.>. .W K r :.%.%.>.t X.;.%.%.>.( J H ` +.-.A E ;.%.%.>.#.6 1.1.1.",
"1.1.1.n ,.%.$.#.T } #.^ 9 V X.:.;.%.%.$.#.} t ;.%.:.:.h X.%.%.%.%.;.$.Y Z s ) l ^ >.%.%.$.R 9 1.1.1.",
"1.1.1.x >.%.%.>.$.J c ; o.%.:.%.%.%.%.;.>.X.h >.%.%.:.h X.>.%.%.%.;.$.Y +.O.k s b %.>.%.;.>.x 1.1.1.",
"1.1.1.x >.>.;.I y N _ h #.:.%.%.%.%.%.%.:...j >.;.;.>.9 K %.%.%.%.%.$.K +.+.*.] L b E %.%.>.x 1.1.1.",
"1.1.1.x ;.| Y U _ @.+.h #.%.%.%.%.%.%.%.%.X.9 >.>.>.;.9 ( %.%.%.%.>. .b &.+.&.&.-.] Z 4 ^ %.x 1.1.1.",
"1.1.1.k ~ E O.+.@.+.+.P $.;.;.%.%.%.%.%.>.o.- G ( / G - ( >.%.%.%.%. .l +.+.&.+.+.-.M v c c 9 1.1.1.",
"1.1.1.9 O.*.@.+.+.+.+.K $. .~ %.%.%.>.#.~ x O O X & # X 0 R #.>.:.>.o.l &.+.+.+.+.-.M v =.[ 4 1.1.1.",
"1.1.1.c =.+.+.+.+.+.+.H Y { | ;.%.$.H e # * * + * & X > * * u H $.;.#.l @.+.+.+.+...0 Z *.-.c 1.1.1.",
"1.1.1.c *.+.+.+.+.+.+.V | %.;.#.T w % & O * , & * * & < * X & $ q W { d @.+.+.+.W E Z Z *.*.c 1.1.1.",
"1.1.1.c *.+.+.+.+.+.+.s #.#.~ 0 : & > < + * , & * * & < * & < > & : < < ..&.+.&.+.-.Z Z *.*.c 1.1.1.",
"1.1.1.c *.+.+.+.+.+.+.5 G u $ X X + # & X O + O X & X & X X & + # o X X k P O.&.+.-.Z Z *.*.c 1.1.1.",
"1.1.1.k ..H ` +.&.o.P # & & > > > * > * > * * , < < > * , > > > > > > > & $ w P O.-.Z Z *.*.c 1.1.1.",
"1.1.1.d W +.+.O.T 8 > # > > > > < , < , > , 8 e a F e 8 < , , , , , > , < > # : 8 E z Z =.*.c 1.1.1.",
"1.1.1.c -.O.T 0 * X > > > > s > > < > > 8 e a p p p a a e 8 > > < > , < > > > > X % $ g +.*.c 1.1.1.",
"1.1.1.c U u & * * X & & X & & & X X & X # $ # $ # = $ & & * X & & X & X # O # & X % & O u U c 1.1.1.",
"1.1.1.: * & > , > & , , > > > < 8 8 8 8 8 7 1 < 7 7 7 7 7 * O & & & & # & * > , + > < > X * , 1.1.1.",
"1.1.1.1.X > > > * & , , , > & * 5 5 3 5 3 p e q F F F p 8 4 Z Z v N M v M 4 > , # * , < < X 1.1.1.1.",
"1.1.1.1.X s , , * X , 1 > j L L S S S S I 9 q < 7 7 7 < ; ' N 4 4 s s ; A _ $ , & : > > , o 1.1.1.1.",
"1.1.1.1.X , , , * & 1 e f v g X @ @ @ o S 6 q q p p p 1 4 A . . . . . . X Q - 8 , q 8 , > o 1.1.1.1.",
"1.1.1.1.o > , 8 7 O e F q v 9 . X X o . B 9 q w F p F 1 2 V . o X X o o . I - q 2 u F u , o 1.1.1.1.",
"1.1.1.1.X s e e i # < 8 > n 9 . o o o . C 7 1 1 8 8 8 , 6 C . o o o X o . I ; < $ u a a g O 1.1.1.1.",
"1.1.1.1.X e G F u O q p 7 B 6   .   .   V 9 e i i i p < 4 C . o o o o o o I - 8 : u a a i O 1.1.1.1.",
"1.1.1.1.O i F F u # e F 0 B U z x x z z ( 6 i F p F F 1 5 C . . X o X o . ! - 8 : u a a i O 1.1.1.1.",
"1.1.1.1.O i F p u # 1 8 1 3 j k k t k y t 2 7 8 8 8 8 : 6 C . o o o . o X I - q 2 u F p i O 1.1.1.1.",
"1.1.1.1.O i p F u # q i i i w < e e u e u i i i i i i < 4 C . o o o o o X U - 8 : u p F i O 1.1.1.1.",
"1.1.1.1.o i p F u O e F F F p 8 F F F F a F a F F F F 7 4 C . . . o o o X I - 8 3 u F p i o 1.1.1.1.",
"1.1.1.1.O i F p u # 1 8 8 8 8 < 8 8 8 8 8 8 0 8 8 8 8 , 6 C . o o o o o . U : < % u p F i O 1.1.1.1.",
"1.1.1.1.O i p F u @ q i i i i i i i i i i i i i i i i < 4 C . o o o o o o I - 8 2 u p p i O 1.1.1.1.",
"1.1.1.1.O n F F i @ 7 w w w w w w w w w w w w w w w w , 6 C . o o o o o o ! ; 5 ; i F F n O 1.1.1.1.",
"1.1.1.1.1.3 7 5 3 1.1.1.1.1.1.1.1.1.1.1.1.1.1.1.1.1.1.1.= r 1.1.1.1.1.1.1.d @ 1.1.3 5 7 5 1.1.1.1.1.",
"1.1.1.1.1.1.1.1.1.1.1.1.1.1.1.1.1.1.1.1.1.1.1.1.1.1.1.1.1.1.1.1.1.1.1.1.1.1.1.1.1.1.1.1.1.1.1.1.1.1.",
"1.1.1.1.1.1.1.1.1.1.1.1.1.1.1.1.1.1.1.1.1.1.1.1.1.1.1.1.1.1.1.1.1.1.1.1.1.1.1.1.1.1.1.1.1.1.1.1.1.1.",
"1.1.1.1.1.1.1.1.1.1.1.1.1.1.1.1.1.1.1.1.1.1.1.1.1.1.1.1.1.1.1.1.1.1.1.1.1.1.1.1.1.1.1.1.1.1.1.1.1.1."
};
