/* XPM */
static char *result[] = {
/* columns rows colors chars-per-pixel */
"50 50 34 1 ",
"  c #0E7C0E",
". c #166D16",
"X c #196B19",
"o c #167516",
"O c #157C15",
"+ c #187318",
"@ c #187B18",
"# c #078F07",
"$ c #0E860E",
"% c #0E8C0E",
"& c #069406",
"* c #069D06",
"= c #0D940D",
"- c #0C9C0C",
"; c #148414",
": c #128B12",
"> c #188418",
", c #188818",
"< c #119211",
"1 c #109A10",
"2 c #06A406",
"3 c #05AC05",
"4 c #0AA30A",
"5 c #09AB09",
"6 c #04B304",
"7 c #04BB04",
"8 c #09B309",
"9 c #08B908",
"0 c #11A011",
"q c #03C303",
"w c #02CA02",
"e c #08C008",
"r c #01D301",
"t c #00D900",
/* pixels */
";O$wr5;>=3q2-:>4q3-1O-q72-@-w741;0935-,147&$::477$",
"6-=9w7254476e5&477q9=53733&497w745337q8843*6444272",
"4%$-75-5:%4454$<5454%%-6**%:4584*==&555-=*&*===-6&",
"%O.O<-$<Oo%==<O@:%-<OO>-$:OO><4<,>O;1<<,O; $;;>O=;",
"O:*$O,O>-%;>O;:4;O;>:4OOXo>&;o:>;*<o>>O-*oXOO5eOo.",
"-q73=<**764153694;-437*:;=*28=04675=-53q64=-5rw-;-",
"6q33337*3297qq245469---4*4&$557774*267664573qw7*2q",
"&7*--**&4=-535=<=#*4=<>=$:OO>$4-4=;$4324=-8-695%-3",
"#4%;::=%&:,=1-&->;:<47Oo.O=2;O::<4<><==-;;-%*4=o$-",
"o;o5<>:O;-<:1----<&57q2=45w33--4&44=<-=<%=,:<;;$o>",
"OO%rw*%;-66254-569299e*277723335&53755--37*=<:266:",
"7*2qw7676466755*272877#=4*6*4485*3237e9833*73363w3",
"7*&67628*&*432*$<5-44=O$==4%:=**&=%<3664&*-32*4472",
"*%O45*=4,:-<<<;;=:;<Oo%;OoOO5<,;OO==<1<::-$==%:-3&",
":OO,--<,:=--=::43&=<;237%$O%rq4;;<43-1:::-#<;,::<;",
"@<2=,1<-35-585936*65363q7724wwe29653484*3-%1<87;o.",
"2q374532354679323&23*44933*=77929246373326556qe*&3",
"67253362*-29754<-#*2=<&5-=% -55*5<$5432--293673*2e",
"*3-:%-=$=;$--<,>; :%,<O$ ,ooO:<:<;o%=-=;:=4-4--;&5",
"$4-:>:::4<>,::*2OoO;5w;ooO-2$O:;$2=:>;<-*,<:<44O;1",
"o:=91<5273&496q73427wr*-33w674232733576384=45-4-O>",
";$*9639362459672373qwe&276q24363*6277e92685654667$",
"q23443953==4646-=8-678;=**9*=-2*&2=5998*-426835476",
"7*:O;144=;O<-=&.@<%-*,oO<<-;;;<< :@:11*;>,:44<,<2*",
"4>@4>O<,>-;;>;,><;O,Oo&;O+oo5<>@Xo=<>;;o:->>:o;4;#",
"4O-q724:17331<<47*%<;-67%;O#ww4,;:6q40:;2q54:O4q9-",
"3-497e744837e9843*33242e35-&7we28427693-477q5-4692",
"4$:44554&$=5551<*#*-=:=3-*$;435-5$$524*;:345*::-3&",
":ooO:1=,>o;==:;OO $:>,>=;:o.@<=::Oo:%=:oO$=-;@OO=;",
"OO-:O;O;4=oO,>42O.o;5wOooO=*;O>O$4<;>O,-4>@;@-5Oo.",
"**28445773*496773427rr*&43w76-52*765497365=55384-$",
"4=$455675=4673625q37q7&*77735366*347qq7444473-1*5&",
":OO>=-1--;$*444==5-578$=4*7&=-4*&*<-554=%%%*&<<;%O",
"O-2%@::=4=>:=--$@==-4<o$==4%;:<:$&:,11---;;:<57O+.",
"3w33-<5&44-<<-<==::::O=OOoOO9<;: ;-<<1----=-59q2&8",
"3726345&469850*37*=-:467=;@#tq4=<*3745*44794977*27",
"&64--43*5237e9643277333q7742qqq376337735*565795$&5",
"$*$;<=*%=:=4884<***4***742*=37826-<*434<O<--*-:oO=",
".Oo84;>oO==<1<;:-$==::-2--$O-44<1;<=%:<>;=:::OO=;O",
":;&ww4=;=454-<:&-$:=,<;: ;OO:-1::<=-*-<<46&-:$367=",
"q227q739643474434%-=5w$O.;-3=;1--35-535733*64663q6",
"3*=67729426593328539qq2-33q672932633799543&3244*72",
"*;O&84-4%$4234=&495968=4767*4485&*&-565-:&#*-::=3=",
",oOO;=$<;O:%<=::<1-4-4$&4-5-:=-=:<:,1==,:;O$;;=O$o",
">53-O;;$3*:>:=*2:,=<44OO%:*-:>::#4=;:<=63 oO%qr;oo",
"3w36347*769897365=28-4*$Oo:<9=45273*47676353qrw2=7",
"3q22323*328e77*365594867&<%2e658374*693725737q9&47",
"&6*&--2=2=0889**-457554769324*9835<#5833==8*395$=5",
";=;,,:% ;O;1-1;;;:-4<:,*48-;>O444=OO<-<=.O-%-1>.O&",
"oOX31@OXo==>>,o%1>;<o>5;%1>o5O;:,>4>>O>>;=@@,oO&@o"
};
