/* XPM */
static char *_e565b227534434285bbc3ea30ea1664LdbCyVDJPKQDwbjg_0[] = {
/* columns rows colors chars-per-pixel */
"50 50 256 2 ",
"   c None",
".  c #040000",
"X  c #0C0202",
"o  c #0B0B04",
"O  c #140302",
"+  c #1C0201",
"@  c #1D0B01",
"#  c #150A09",
"$  c #140A02",
"%  c #141102",
"&  c #1D1603",
"*  c #1B160A",
"=  c #12100E",
"-  c #101C18",
";  c #2B0B04",
":  c #250704",
">  c #300504",
",  c #390804",
"<  c #2A1502",
"1  c #281B05",
"2  c #341C01",
"3  c #3C1B02",
"4  c #211D19",
"5  c #0F241F",
"6  c #282502",
"7  c #352B01",
"8  c #3D2B02",
"9  c #3A2204",
"0  c #2F320E",
"q  c #3D3902",
"w  c #29251B",
"e  c #3B3A1B",
"r  c #2F3519",
"t  c #032B2A",
"y  c #0C2926",
"u  c #023535",
"i  c #0E3D35",
"p  c #16342C",
"a  c #2B2621",
"s  c #2B2724",
"d  c #332C25",
"f  c #352621",
"g  c #26312E",
"h  c #3B342B",
"j  c #4C0D05",
"k  c #500D05",
"l  c #5E1106",
"z  c #452502",
"x  c #402B03",
"c  c #592E04",
"v  c #4E3C03",
"b  c #443902",
"n  c #563605",
"m  c #4A2316",
"M  c #573A16",
"N  c #672F00",
"B  c #643303",
"V  c #6C3703",
"C  c #753C04",
"Z  c #7B3F04",
"A  c #41382F",
"S  c #443C35",
"D  c #483F38",
"F  c #2B431F",
"G  c #12453D",
"H  c #375422",
"J  c #37583E",
"K  c #494502",
"L  c #4B4C01",
"P  c #575906",
"I  c #5B571F",
"U  c #684907",
"Y  c #7D4204",
"T  c #754804",
"R  c #6A5804",
"E  c #775703",
"W  c #586C17",
"Q  c #4D621C",
"!  c #6A6902",
"~  c #686501",
"^  c #786A02",
"/  c #4E4922",
"(  c #514728",
")  c #595229",
"_  c #4A413A",
"`  c #51483E",
"'  c #436D2C",
"]  c #0A4B47",
"[  c #0A504E",
"{  c #11544F",
"}  c #0C5352",
"|  c #005A5B",
" . c #035554",
".. c #244D49",
"X. c #136A5A",
"o. c #1A785F",
"O. c #1B725D",
"+. c #1D694E",
"@. c #217657",
"#. c #026261",
"$. c #096766",
"%. c #08716F",
"&. c #147360",
"*. c #0C7371",
"=. c #176D63",
"-. c #544A40",
";. c #5F4F46",
":. c #5A5148",
">. c #455953",
",. c #65564A",
"<. c #695D51",
"1. c #75665B",
"2. c #65785C",
"3. c #7A6D61",
"4. c #884706",
"5. c #954D05",
"6. c #994D05",
"7. c #9A5209",
"8. c #955005",
"9. c #875804",
"0. c #A44E00",
"q. c #A25608",
"w. c #A35305",
"e. c #B95F06",
"r. c #846704",
"t. c #936003",
"y. c #857703",
"u. c #927304",
"i. c #917F03",
"p. c #AC600E",
"a. c #B37905",
"s. c #B56306",
"d. c #C26305",
"f. c #CD6906",
"g. c #D37005",
"h. c #E37507",
"j. c #F27D08",
"k. c #F07B07",
"l. c #8A6D5F",
"z. c #887668",
"x. c #778A14",
"c. c #15827C",
"v. c #589F48",
"b. c #659E43",
"n. c #73C95A",
"m. c #71D666",
"M. c #8D8A02",
"N. c #8F8003",
"B. c #9D8203",
"V. c #929203",
"C. c #9A9B06",
"Z. c #A09F03",
"A. c #B58F05",
"S. c #A2A303",
"D. c #B8B501",
"F. c #B9B702",
"G. c #D28E06",
"H. c #FE8308",
"J. c #FE8C08",
"K. c #FF8307",
"L. c #FF9108",
"P. c #F19407",
"I. c #E28607",
"U. c #EFA307",
"Y. c #FFA407",
"T. c #FFBA07",
"R. c #E5B106",
"E. c #C9C703",
"W. c #DDDD05",
"Q. c #E0E005",
"!. c #F0ED02",
"~. c #FEFE05",
"^. c #F3F002",
"/. c #9D8677",
"(. c #988678",
"). c #018C8B",
"_. c #03908E",
"`. c #039291",
"'. c #009799",
"]. c #16968F",
"[. c #0FB1AC",
"{. c #03A8A6",
"}. c #04DEDC",
"|. c #04E1DE",
" X c #04E6E4",
".X c #05F7F4",
"XX c #05F8F5",
"oX c #989998",
"OX c #AF9B8C",
"+X c #B29D8C",
"@X c #B6A18F",
"#X c #B8A391",
"$X c #C4AD9A",
"%X c #BEF6F5",
"&X c #BBF8F7",
"*X c #B4FDFC",
"=X c #B9F9F8",
"-X c #AFF5F6",
";X c #CBEDEC",
":X c #C7EFEF",
">X c #D5E6E6",
",X c #D5E6E6",
"<X c #C7F0EF",
"1X c #C2F3F3",
"2X c black",
"3X c black",
"4X c black",
"5X c black",
"6X c black",
"7X c black",
"8X c black",
"9X c black",
"0X c black",
"qX c black",
"wX c black",
"eX c black",
"rX c black",
"tX c black",
"yX c black",
"uX c black",
"iX c black",
"pX c black",
"aX c black",
"sX c black",
"dX c black",
"fX c black",
"gX c black",
"hX c black",
"jX c black",
"kX c black",
"lX c black",
"zX c black",
"xX c black",
"cX c black",
"vX c black",
"bX c black",
"nX c black",
"mX c black",
"MX c black",
"NX c black",
"BX c black",
"VX c black",
"CX c black",
"ZX c black",
"AX c black",
"SX c black",
"DX c black",
"FX c black",
"GX c black",
"HX c black",
"JX c black",
"KX c black",
"LX c black",
"PX c black",
"IX c black",
"UX c black",
/* pixels */
"                                                            s                                       ",
"                                                                            >X                      ",
"                                                                            =X                      ",
"                                                          u {.            ;X*X                      ",
"                    1X                                    #. X%.          1X                        ",
"                      %X                                  #.XX`.          =X                        ",
"                        &X                                #..X`.        ;X*X                        ",
"                        *X&X                              #..X`.        :X*X                        ",
"                          *X&X                            #..X`.        %X*X                        ",
"                            *X&X                          #..X`.        %X*X        ;X              ",
"                            *X*X&X                        #..X_.        %X        ;X=X              ",
"                              *X*X%X                    # #..X)..       %X        1X                ",
"                                *X*X1X                ,.;.#.XX).f ,.    ;X      ;X=X                ",
"                                  *X*X1X            D #Xz. ..X).; m :         ;X=X    N B           ",
"                                    *X*X;X          z.$X/.} |. .. O ;         1X    | J e           ",
"                                        =X;X      S +X$X/.} }.  X # 3 s.r.L 2.-X  $.].=.i           ",
"                                                  S @X$X/.} }.  X X C I.R ! P g t *.H Z.~           ",
"      ;X1X;X;X>X                                  1.$X$X/.} }.  X X 4.t.L I ( y $.F D.~.!           ",
"          *X*X%X1X;X>X                            :.(.(.l.[ }.  . $ B.U h 1.>.$.F D.~.~.!           ",
"                *X*X=X&X1X;X>X                  c 4.4.M m ] }.  X < n r D ..$.F D.~.~.~.W           ",
"                        *X*X=X1X;X>X          6.k.K.K.k.0.[  Xu . z C n q.M r F.~.~.~.Q.@.          ",
"                                    >X      E U.Y.L.L.L.g.G [.t 2 5.h.4.d.4.! ~.~.~.~.W.o.          ",
"                                            b ^ i.u.u.y.R o - 5 q.K.H.c i 0 Z.~.~.~.~.W.o.          ",
"                                            E A.a.a.9.1 @ O + y p.K.f.& '.' !.~.~.~.~.W.o.          ",
"                                            6 ^ M.M.^ ! @ : > - 7.Y B   | X.F.~.~.~.~.W.o.          ",
"                                            * ) ) / e M.K : > X 2 y.6     *.W ^.~.~.~.W.o.          ",
"                        >X;X1X1X1X;X        _ OX3./ w 6 b X @ q V.S.o     G c.x.~.~.~.W.o.          ",
"                >X;X1X%X=X*X*X*X            d ,.U t.T z & . % S.V.8 <       c.X.V.~.~.E.&.          ",
"            ;X%X=X*X*X*X*X                    z Y e.j.R.N.O + % 9 c 2         c.+.E.~.C.]           ",
"        ;X%X*X*X*X*X                          < w.h.J.T.P.v j ; z v 7           *.H D.Q u           ",
"    ;X=X*X*X                          1X        < c 8.G.I.U j 3 v.n.K             { O.G             ",
"                                    %X*X            @ 9 v < : 7 m.b.2               ] t             ",
"                                  %X*X              > , x P q z U n B                               ",
"                              ;X%X*X                , l u.K 8 9 w.4.Z                               ",
"                            ;X=X*X                  O k r.n d.Y Y g.4.                              ",
"                          ;X=X*X                      < v B 7.V C K.5.                              ",
"                        ;X=X*X                        % 1 C Y T Y K.5.                              ",
"                      ;X=X*X                          h _ 9 V & z d.c                               ",
"                    ;X=X*X                          4 1.<.h 1 f A *                                 ",
"                  ;X=X                              w :.-.d a -.` 4                                 ",
"                ,X                                  w -.D o a -.` 4                                 ",
"                                                    = _ D   s -.D                                   ",
"                                                      4 a   a -.S                                   ",
"                                                              h d                                   ",
"                                                                                                    ",
"                                                                                                    ",
"                                                                                                    ",
"                                                                                                    ",
"                                                          oXoXoXoX                                  ",
"                                                  oXoXoXoXoXoXoXoXoXoX                              "
};
